<svg width="2000" height="2000" viewBox="0 0 2000 2000" fill="none" xmlns="http://www.w3.org/2000/svg">
<path d="M1431.45 619.137C1431.45 647.015 1375.23 643.278 1336.31 632.305C1280.08 619.137 1241.16 592.801 1254.13 535.739C1254.13 489.65 1299.55 497.279 1353.61 518.181C1399.02 535.739 1431.45 591.259 1431.45 619.137Z" fill="#30313D"/>
<path d="M126.451 1378.45C126.451 1439.33 154.367 1498.75 188.661 1547.91C241.962 1624.32 336.695 1653.33 429.816 1653.33H1540.26C1604.79 1653.33 1647.52 1562.12 1649.63 1497.58C1652.78 1401.65 1707.59 1292.97 1691.6 1131.53C1666.68 879.949 1497.2 803.076 1320.25 707.569C1143.3 612.061 1257.94 472.294 953.887 388.433C649.83 304.573 328.325 581.778 338.294 840.348C348.263 1098.92 126.451 1136.19 126.451 1378.45Z" fill="#30313D"/>
<path d="M828.438 1653.33H1046.09C1164.13 1610.39 1282.18 1412.49 1173.35 1433.02C1064.53 1453.56 957.551 1444.22 1099.57 1373.28C1241.6 1302.33 1164.13 1248.19 1099.57 1253.79C1035.02 1259.39 1046.09 1214.58 1071.91 1128.7C1097.73 1042.82 1071.91 964.407 999.974 964.407C928.04 964.407 985.218 1177.24 928.04 1192.18C870.861 1207.12 898.528 1108.17 828.438 1128.7C758.348 1149.24 872.706 1393.82 828.438 1373.28C784.171 1352.74 789.704 1253.79 710.392 1328.47C646.943 1388.21 762.652 1569.94 828.438 1653.33Z" fill="white"/>
<path d="M589.16 412.61C589.16 393.666 604.517 378.309 623.46 378.309H1230.45C1249.39 378.309 1264.75 393.666 1264.75 412.61V1191.27C1264.75 1210.21 1249.39 1225.57 1230.45 1225.57H623.46C604.517 1225.57 589.16 1210.21 589.16 1191.27V412.61Z" fill="white"/>
<path fill-rule="evenodd" clip-rule="evenodd" d="M584.019 412.61C584.019 390.827 601.677 373.168 623.46 373.168H1230.45C1252.23 373.168 1269.89 390.827 1269.89 412.61V1191.27C1269.89 1213.05 1252.23 1230.71 1230.45 1230.71H623.46C601.677 1230.71 584.019 1213.05 584.019 1191.27V412.61ZM623.46 383.451C607.356 383.451 594.301 396.506 594.301 412.61V1191.27C594.301 1207.37 607.356 1220.43 623.46 1220.43H1230.45C1246.55 1220.43 1259.61 1207.37 1259.61 1191.27V412.61C1259.61 396.506 1246.55 383.451 1230.45 383.451H623.46Z" fill="#30313D"/>
<path d="M589.16 412.61C589.16 393.666 604.517 378.309 623.46 378.309H1230.45C1249.39 378.309 1264.75 393.666 1264.75 412.61V494.6H589.16V412.61Z" fill="#30313D"/>
<path d="M694.375 436.455C694.375 450.217 683.219 461.374 669.456 461.374C655.693 461.374 644.537 450.217 644.537 436.455C644.537 422.692 655.693 411.535 669.456 411.535C683.219 411.535 694.375 422.692 694.375 436.455Z" fill="white"/>
<path d="M777.444 436.455C777.444 450.217 766.288 461.374 752.525 461.374C738.762 461.374 727.606 450.217 727.606 436.455C727.606 422.692 738.762 411.535 752.525 411.535C766.288 411.535 777.444 422.692 777.444 436.455Z" fill="white"/>
<path d="M860.506 436.455C860.506 450.217 849.349 461.374 835.587 461.374C821.824 461.374 810.667 450.217 810.667 436.455C810.667 422.692 821.824 411.535 835.587 411.535C849.349 411.535 860.506 422.692 860.506 436.455Z" fill="white"/>
<path fill-rule="evenodd" clip-rule="evenodd" d="M1037.71 588.343H686.069V578.061H1037.71V588.343Z" fill="#E7E8FF"/>
<path fill-rule="evenodd" clip-rule="evenodd" d="M1037.71 948.289H686.069V938.007H1037.71V948.289Z" fill="#E7E8FF"/>
<path fill-rule="evenodd" clip-rule="evenodd" d="M1037.71 1047.97H686.069V1037.68H1037.71V1047.97Z" fill="#E7E8FF"/>
<path fill-rule="evenodd" clip-rule="evenodd" d="M689.237 695.029C689.237 673.246 706.895 655.588 728.679 655.588H1069.86C1091.65 655.588 1109.3 673.246 1109.3 695.029V825.783C1109.3 847.566 1091.65 865.225 1069.86 865.225H728.679C706.895 865.225 689.237 847.566 689.237 825.783V695.029ZM728.679 665.87C712.574 665.87 699.519 678.925 699.519 695.029V825.783C699.519 841.887 712.574 854.942 728.679 854.942H1069.86C1085.97 854.942 1099.02 841.887 1099.02 825.783V695.029C1099.02 678.925 1085.97 665.87 1069.86 665.87H728.679Z" fill="#30313D"/>
<path d="M893.736 1132.5C893.736 1113.56 909.093 1098.2 928.037 1098.2H931.425C950.369 1098.2 965.726 1113.56 965.726 1132.5V1135.89C965.726 1154.83 950.369 1170.19 931.425 1170.19H928.037C909.093 1170.19 893.736 1154.83 893.736 1135.89V1132.5Z" fill="#30313D"/>
<path fill-rule="evenodd" clip-rule="evenodd" d="M1021.5 1132.5C1021.5 1110.72 1039.16 1093.06 1060.94 1093.06H1064.33C1086.11 1093.06 1103.77 1110.72 1103.77 1132.5V1135.89C1103.77 1157.67 1086.11 1175.33 1064.33 1175.33H1060.94C1039.16 1175.33 1021.5 1157.67 1021.5 1135.89V1132.5ZM1060.94 1103.34C1044.84 1103.34 1031.78 1116.4 1031.78 1132.5V1135.89C1031.78 1151.99 1044.84 1165.05 1060.94 1165.05H1064.33C1080.43 1165.05 1093.49 1151.99 1093.49 1135.89V1132.5C1093.49 1116.4 1080.43 1103.34 1064.33 1103.34H1060.94Z" fill="#E7E8FF"/>
<path fill-rule="evenodd" clip-rule="evenodd" d="M841.023 714.148C834.831 704.385 820.501 704.64 814.66 714.617L771.228 788.814C766.613 796.697 758.164 801.542 749.03 801.542H694.378V791.259H749.03C754.513 791.259 759.584 788.351 762.354 783.62L805.786 709.422C815.516 692.8 839.392 692.376 849.706 708.641L888.103 769.19C893.793 778.163 906.636 778.84 913.238 770.516L944.201 731.476C953.918 719.223 972.231 718.405 983.002 729.743L1013.2 761.534C1016.12 764.603 1020.16 766.34 1024.4 766.34H1101.39V776.622H1024.4C1017.35 776.622 1010.6 773.728 1005.75 768.616L975.547 736.825C969.082 730.02 958.09 730.511 952.257 737.865L921.294 776.905C910.295 790.774 888.899 789.646 879.42 774.697L841.023 714.148Z" fill="#30313D"/>
<path d="M1827.17 1416.83H869.163C850.813 1416.83 835.938 1431.71 835.938 1450.06C835.938 1468.41 850.813 1483.28 869.163 1483.28H1827.17C1845.52 1483.28 1860.4 1468.41 1860.4 1450.06C1860.4 1431.71 1845.52 1416.83 1827.17 1416.83Z" fill="white"/>
<path fill-rule="evenodd" clip-rule="evenodd" d="M830.796 1450.06C830.796 1428.87 847.974 1411.69 869.163 1411.69H1827.17C1848.36 1411.69 1865.54 1428.87 1865.54 1450.06C1865.54 1471.25 1848.36 1488.43 1827.17 1488.43H869.163C847.974 1488.43 830.796 1471.25 830.796 1450.06ZM869.163 1421.97C853.653 1421.97 841.079 1434.55 841.079 1450.06C841.079 1465.57 853.653 1478.14 869.163 1478.14H1827.17C1842.68 1478.14 1855.26 1465.57 1855.26 1450.06C1855.26 1434.55 1842.68 1421.97 1827.17 1421.97H869.163Z" fill="#30313D"/>
<path d="M939.379 1635.56L974.7 1486.47H1062.77L997.174 1635.56H939.379Z" fill="white"/>
<path fill-rule="evenodd" clip-rule="evenodd" d="M970.635 1481.33H1070.65L1000.53 1640.7H932.878L970.635 1481.33ZM978.766 1491.61L945.881 1630.42H993.819L1054.89 1491.61H978.766Z" fill="#30313D"/>
<path d="M1746.55 1635.56L1712.9 1486.47H1623.16L1687.66 1635.56H1746.55Z" fill="white"/>
<path fill-rule="evenodd" clip-rule="evenodd" d="M1718.38 1479.61H1612.72L1683.15 1642.42H1755.13L1718.38 1479.61ZM1707.41 1493.33L1737.97 1628.7H1692.17L1633.6 1493.33H1707.41Z" fill="#30313D"/>
<path d="M421.039 363.175L401.534 389.332C400.347 390.923 398.412 391.689 396.516 391.317L372.409 386.587C367.222 385.57 364.093 392.395 368.096 395.995L387.043 413.035C388.426 414.279 389.079 416.195 388.761 418.075L384.008 446.172C383.114 451.454 389.325 454.723 392.842 450.822L412.304 429.23C413.447 427.962 415.104 427.349 416.753 427.585L439.278 430.797C444.352 431.52 447.225 424.899 443.367 421.373L426.616 406.067C425.271 404.838 424.628 402.968 424.917 401.124L430.198 367.373C431.062 361.853 424.327 358.766 421.039 363.175Z" fill="#E7E8FF"/>
<path d="M1358.26 360.111L1350.63 369.527C1350.16 370.1 1349.41 370.376 1348.66 370.242L1339.23 368.539C1337.2 368.173 1335.98 370.63 1337.54 371.926L1344.96 378.06C1345.5 378.508 1345.75 379.198 1345.63 379.875L1343.77 389.99C1343.42 391.891 1345.85 393.068 1347.23 391.664L1354.84 383.891C1355.29 383.434 1355.94 383.214 1356.58 383.298L1365.4 384.455C1367.38 384.715 1368.51 382.331 1367 381.062L1360.44 375.552C1359.92 375.11 1359.66 374.437 1359.78 373.772L1361.84 361.622C1362.18 359.635 1359.55 358.524 1358.26 360.111Z" fill="#E7E8FF"/>
<path d="M1531.4 630.716L1520.33 683.324V716.549L1545.25 738.699L1620 730.393V680.554L1617.24 622.409C1647.69 583.645 1658.77 508.888 1625.54 470.125C1592.32 431.361 1506.48 425.824 1489.87 517.195C1476.58 590.291 1512.02 623.333 1531.4 630.716Z" fill="white"/>
<path fill-rule="evenodd" clip-rule="evenodd" d="M1552.42 449.913C1527.1 454.661 1502.91 474.244 1494.93 518.114C1482.03 589.042 1516.41 619.503 1533.23 625.912L1537.34 627.476L1525.47 683.859V714.24L1546.95 733.337L1614.86 725.791V680.677L1612.01 620.739L1613.19 619.233C1627.7 600.765 1637.8 573.384 1640.15 545.83C1642.5 518.222 1637.03 491.423 1621.64 473.471C1606.23 455.494 1578.32 445.057 1552.42 449.913ZM1550.53 439.806C1580.01 434.279 1611.63 445.992 1629.45 466.779C1647.28 487.59 1652.88 517.551 1650.39 546.704C1647.96 575.182 1637.75 603.825 1622.46 624.051L1625.15 680.432V734.994L1543.54 744.062L1515.19 718.857V682.788L1525.51 633.736C1503.46 622.781 1471.94 587.061 1484.81 516.275C1493.45 468.774 1520.48 445.441 1550.53 439.806Z" fill="#30313D"/>
<path d="M1351.43 1655.18L1379.79 1345.07H1776.88L1816.59 1655.18H1351.43Z" fill="#30313D"/>
<path d="M1085.62 766.388C1085.62 775.249 1094.85 790.385 1099.47 796.845L1093.93 830.071L1052.4 835.609C1041.32 821.765 1008.1 816.227 999.79 794.077C993.144 776.356 1011.79 757.159 1021.94 752.544L987.525 704.363C983.497 698.723 984.443 690.941 989.705 686.43C995.286 681.646 1003.68 682.262 1008.51 687.809L1055.17 741.469C1055.17 743.315 1056.83 743.13 1063.47 727.625C1071.78 708.243 1080.09 716.55 1085.62 719.319C1091.16 722.087 1085.62 755.313 1085.62 766.388Z" fill="white"/>
<path fill-rule="evenodd" clip-rule="evenodd" d="M986.359 682.527C994.085 675.904 1005.71 676.757 1012.39 684.436L1055.12 733.584C1056.07 731.651 1057.27 729.051 1058.75 725.6C1063.09 715.456 1068.52 710.024 1075.59 710.024C1078.7 710.024 1081.39 711.147 1083.34 712.148C1084.32 712.652 1085.25 713.195 1086 713.637L1086.03 713.652C1086.84 714.131 1087.42 714.467 1087.92 714.72C1090.55 716.035 1091.63 718.598 1092.11 720.129C1092.67 721.885 1092.95 723.915 1093.09 725.922C1093.37 729.976 1093.18 735.033 1092.83 740.092C1092.54 744.242 1092.14 748.572 1091.77 752.558C1091.68 753.465 1091.6 754.355 1091.52 755.22C1091.08 760.001 1090.76 763.902 1090.76 766.388C1090.76 769.487 1092.53 774.522 1095.4 780.195C1098.15 785.625 1101.47 790.802 1103.65 793.857L1104.89 795.59L1098.38 834.665L1050.2 841.089L1048.38 838.82C1046.22 836.122 1042.75 833.567 1038.08 830.83C1035.22 829.161 1032.28 827.616 1029.16 825.977C1027.06 824.871 1024.88 823.723 1022.58 822.465C1011.88 816.594 999.858 808.901 994.976 795.882C990.82 784.801 994.759 773.776 1000.3 765.529C1004.32 759.543 1009.58 754.394 1014.49 750.964L983.341 707.351C977.765 699.544 979.074 688.771 986.359 682.527ZM1060.31 741.469V741.426C1060.31 741.447 1060.31 741.463 1060.31 741.469ZM1004.63 691.183C1001.66 687.768 996.487 687.388 993.051 690.334C989.811 693.111 989.228 697.902 991.709 701.375L1029.75 754.639L1024.07 757.225C1020 759.073 1013.5 764.322 1008.83 771.262C1004.17 778.198 1002.11 785.632 1004.6 792.271C1008.03 801.402 1016.78 807.554 1027.53 813.45C1029.46 814.507 1031.51 815.587 1033.58 816.677C1036.91 818.432 1040.29 820.212 1043.27 821.957C1047.29 824.313 1051.25 826.963 1054.41 830.154L1089.48 825.477L1094.05 798.064C1091.73 794.646 1088.77 789.865 1086.23 784.838C1083.33 779.113 1080.48 772.15 1080.48 766.388C1080.48 763.337 1080.86 758.931 1081.28 754.281C1081.36 753.386 1081.45 752.475 1081.53 751.554C1081.91 747.575 1082.29 743.398 1082.57 739.385C1082.91 734.407 1083.06 729.946 1082.83 726.646C1082.72 725.119 1082.55 724.064 1082.36 723.409C1081.85 723.123 1081.35 722.83 1080.91 722.57L1080.82 722.518C1080.03 722.054 1079.34 721.652 1078.65 721.297C1077.22 720.568 1076.28 720.306 1075.59 720.306C1075.04 720.306 1072.16 720.413 1068.2 729.65C1064.88 737.388 1062.62 741.779 1061.02 744.031C1060.61 744.613 1060.1 745.254 1059.49 745.805C1059.08 746.172 1057.67 747.406 1055.53 747.406C1052.52 747.406 1050.99 745.199 1050.5 744.004C1050.48 743.962 1050.47 743.921 1050.45 743.88L1004.63 691.183ZM1082.18 722.885C1082.18 722.883 1082.19 722.908 1082.22 722.968C1082.19 722.918 1082.17 722.888 1082.18 722.885Z" fill="#30313D"/>
<path d="M1564.63 711.012C1526.97 711.012 1517.56 681.478 1517.56 666.711C1490.98 666.711 1473.57 679.689 1468.03 683.381L1423.42 810.689L1415.11 1347.84C1508.15 1376.64 1625.54 1359.84 1672.61 1347.84L1703.07 686.093C1684.77 674.446 1658.03 669.36 1638.82 667.551C1629.41 666.665 1621.32 673.321 1616.52 681.451C1608.17 695.582 1591.85 711.012 1564.63 711.012Z" fill="white"/>
<path fill-rule="evenodd" clip-rule="evenodd" d="M1472.32 686.687L1428.55 811.603L1420.31 1344.04C1509.09 1370.18 1619.43 1355.41 1667.65 1343.77L1697.8 688.905C1680.64 678.994 1656.45 674.376 1638.33 672.669C1631.81 672.055 1625.29 676.709 1620.95 684.067C1611.94 699.3 1594.15 716.153 1564.63 716.153C1544.25 716.153 1530.96 708.065 1522.89 697.523C1516.56 689.248 1513.64 679.721 1512.74 672.005C1492.38 673.301 1478.47 682.515 1472.32 686.687ZM1466.3 678.346C1472.93 673.835 1490.95 661.57 1517.56 661.57H1522.7V666.711C1522.7 673.206 1524.82 683.117 1531.06 691.275C1537.11 699.192 1547.35 705.871 1564.63 705.871C1589.55 705.871 1604.39 691.864 1612.09 678.836C1617.35 669.934 1627.02 661.275 1639.3 662.432C1658.7 664.26 1686.46 669.429 1705.83 681.755L1708.34 683.354L1677.57 1351.88L1673.88 1352.82C1626.44 1364.92 1507.95 1381.96 1413.59 1352.75L1409.91 1351.61L1418.29 809.776L1463.75 680.057L1465.18 679.103C1465.51 678.885 1465.88 678.631 1466.3 678.346Z" fill="#30313D"/>
<path d="M1467.72 954.667C1471.59 886.881 1492.68 764.766 1506.56 691.964C1509.19 678.165 1497.56 665.763 1484.06 669.643C1352.72 707.388 1320.94 880.084 1279.44 882.678C1249.9 884.525 1178.54 835.197 1132.09 799.482C1118.12 788.741 1098.28 789.721 1085.82 802.182L1056.13 831.873C1047.04 840.966 1043.65 854.389 1048.7 866.217C1083 946.639 1179.46 1073.58 1240.68 1104.18C1293.84 1130.76 1336.66 1093.11 1351.43 1070.96C1350.51 1142.02 1349.21 1293.57 1351.43 1331.23C1354.2 1378.3 1351.43 1417.06 1384.65 1422.6C1417.88 1428.13 1481.56 1417.06 1481.56 1405.98C1481.56 1394.91 1462.18 1051.58 1467.72 954.667Z" fill="white"/>
<path fill-rule="evenodd" clip-rule="evenodd" d="M1482.64 664.702C1500.5 659.57 1514.82 676.075 1511.61 692.927C1497.72 765.773 1476.7 887.565 1472.85 954.961C1470.1 1003.1 1473.54 1112.87 1477.7 1212.3C1480.28 1273.91 1483.13 1331.59 1484.92 1367.77C1486.01 1389.78 1486.7 1403.84 1486.7 1405.98C1486.7 1409.91 1483.97 1412.63 1481.84 1414.22C1479.49 1415.98 1476.38 1417.5 1472.95 1418.83C1466.02 1421.51 1456.65 1423.83 1446.44 1425.59C1426.09 1429.1 1401.22 1430.57 1383.81 1427.67C1374.43 1426.11 1367.26 1422.11 1361.95 1415.97C1356.74 1409.95 1353.62 1402.22 1351.61 1393.66C1348.61 1380.82 1347.88 1364.81 1347.11 1347.73C1346.86 1342.41 1346.62 1336.99 1346.3 1331.53C1344.21 1296.13 1345.21 1161.3 1346.1 1085.87C1337.77 1094.85 1326.38 1104.15 1312.6 1110.51C1292.18 1119.94 1266.53 1122.86 1238.38 1108.78C1206.67 1092.93 1166.66 1052.74 1130.56 1007.07C1094.33 961.235 1061.36 908.999 1043.97 868.234C1038 854.241 1042.11 838.626 1052.5 828.238L1056.13 831.873L1052.5 828.238L1082.19 798.546C1096.53 784.2 1119.27 783.144 1135.22 795.406C1158.38 813.207 1187.66 834.341 1214.77 850.769C1228.33 858.987 1241.24 865.96 1252.5 870.749C1263.93 875.616 1273 877.93 1279.12 877.547C1282.51 877.335 1286.43 875.34 1291.14 870.673C1295.82 866.044 1300.73 859.332 1306.11 850.852C1311.46 842.406 1317.11 832.483 1323.32 821.545L1323.54 821.157C1329.67 810.365 1336.33 798.65 1343.68 786.656C1373.36 738.228 1415.01 684.138 1482.64 664.702ZM1501.51 691.002C1503.56 680.256 1494.62 671.956 1485.48 674.584C1421.77 692.893 1381.87 744.023 1352.45 792.029C1345.18 803.877 1338.6 815.467 1332.45 826.292L1332.26 826.624C1326.08 837.505 1320.31 847.66 1314.79 856.358C1309.3 865.023 1303.89 872.523 1298.38 877.982C1292.9 883.404 1286.75 887.373 1279.76 887.809C1271.11 888.35 1260.17 885.19 1248.47 880.211C1236.59 875.155 1223.22 867.91 1209.44 859.563C1181.88 842.859 1152.26 821.473 1128.96 803.558C1116.96 794.339 1100.03 795.242 1089.46 805.817L1059.77 835.509C1051.97 843.306 1049.31 854.537 1053.43 864.2C1070.35 903.857 1102.75 955.301 1138.63 1000.69C1174.64 1046.25 1213.46 1084.83 1242.97 1099.59C1267.98 1112.09 1290.32 1109.47 1308.3 1101.18C1326.47 1092.79 1340.19 1078.55 1347.15 1068.11L1356.8 1053.64L1356.57 1071.02C1355.64 1142.21 1354.36 1293.51 1356.56 1330.92C1356.91 1336.86 1357.17 1342.58 1357.42 1348.07C1358.19 1364.86 1358.86 1379.49 1361.63 1391.32C1363.43 1399.02 1366.02 1404.96 1369.72 1409.24C1373.32 1413.4 1378.26 1416.32 1385.5 1417.53C1401.31 1420.16 1424.9 1418.87 1444.69 1415.45C1454.56 1413.75 1463.19 1411.57 1469.24 1409.24C1472.29 1408.06 1474.42 1406.94 1475.68 1405.99C1476.04 1405.72 1476.27 1405.51 1476.41 1405.37C1476.32 1402 1475.68 1389.06 1474.71 1369.48C1472.93 1333.6 1470.05 1275.41 1467.43 1212.73C1463.28 1113.5 1459.8 1003.14 1462.59 954.374C1466.48 886.198 1487.64 763.758 1501.51 691.002ZM1476.61 1405.14C1476.61 1405.14 1476.6 1405.15 1476.59 1405.17C1476.6 1405.15 1476.61 1405.14 1476.61 1405.14Z" fill="#30313D"/>
<path d="M1600.62 951.899C1602.66 900.987 1628.26 763.48 1643.85 685.696C1645.99 675.005 1656.16 667.812 1666.67 670.731C1810.17 710.607 1924.11 956.189 1913.5 1054.35C1904.64 1136.3 1839.66 1265.7 1808.28 1320.15C1810.13 1353.38 1810.5 1420.94 1797.21 1425.37C1780.6 1430.9 1636.62 1425.37 1628.31 1408.75C1620 1392.14 1597.85 1021.12 1600.62 951.899Z" fill="white"/>
<path fill-rule="evenodd" clip-rule="evenodd" d="M1665.29 675.684C1658.05 673.672 1650.52 678.538 1648.89 686.706C1633.26 764.668 1607.78 901.698 1605.76 952.105C1604.39 986.398 1609.21 1096.16 1615.45 1199.75C1618.56 1251.47 1622.02 1301.52 1625.21 1339.67C1626.81 1358.75 1628.34 1374.81 1629.73 1386.59C1630.42 1392.49 1631.07 1397.27 1631.67 1400.79C1631.97 1402.55 1632.24 1403.94 1632.49 1404.98C1632.71 1405.88 1632.86 1406.3 1632.9 1406.42C1632.96 1406.49 1633.26 1406.84 1634.13 1407.39C1635.22 1408.07 1636.83 1408.84 1639.03 1409.63C1643.41 1411.22 1649.46 1412.72 1656.81 1414.08C1671.46 1416.8 1690.54 1418.86 1710.01 1420.24C1729.45 1421.62 1749.15 1422.3 1764.98 1422.3C1772.9 1422.3 1779.8 1422.13 1785.2 1421.79C1790.77 1421.45 1794.18 1420.95 1795.55 1420.5C1795.55 1420.49 1796.14 1420.18 1797.05 1418.5C1798.01 1416.71 1798.95 1414.06 1799.81 1410.52C1801.51 1403.48 1802.63 1393.94 1803.29 1383.24C1804.61 1361.91 1804.07 1336.93 1803.15 1320.44L1803.07 1318.91L1803.83 1317.58C1819.43 1290.51 1843.43 1244.73 1864.61 1195.53C1885.85 1146.21 1904.05 1093.96 1908.39 1053.79C1910.93 1030.26 1906.02 997.279 1894.67 960.104C1883.36 923.044 1865.79 882.251 1843.42 843.24C1798.51 764.914 1735.03 695.063 1665.29 675.684ZM1638.8 684.686C1641.45 671.471 1654.28 661.951 1668.04 665.777C1741.81 686.275 1807.06 759.153 1852.34 838.126C1875.07 877.765 1892.96 919.264 1904.51 957.102C1916.02 994.827 1921.37 1029.35 1918.61 1054.9C1914.09 1096.68 1895.37 1150.11 1874.06 1199.6C1853.04 1248.41 1829.29 1293.87 1813.5 1321.39C1814.38 1338.12 1814.87 1362.67 1813.55 1383.88C1812.88 1394.78 1811.71 1405.03 1809.8 1412.94C1808.85 1416.88 1807.66 1420.49 1806.1 1423.37C1804.61 1426.14 1802.35 1429.07 1798.83 1430.24C1796.03 1431.18 1791.31 1431.71 1785.84 1432.06C1780.16 1432.41 1773.02 1432.58 1764.98 1432.58C1748.88 1432.58 1728.95 1431.89 1709.28 1430.5C1689.64 1429.1 1670.13 1427.01 1654.93 1424.19C1647.35 1422.79 1640.67 1421.17 1635.52 1419.3C1632.95 1418.36 1630.6 1417.31 1628.66 1416.09C1626.8 1414.93 1624.84 1413.31 1623.71 1411.05C1623.17 1409.97 1622.79 1408.61 1622.49 1407.38C1622.17 1406.03 1621.85 1404.39 1621.53 1402.5C1620.89 1398.73 1620.22 1393.76 1619.52 1387.79C1618.11 1375.84 1616.57 1359.65 1614.97 1340.53C1611.76 1302.27 1608.3 1252.13 1605.18 1200.36C1598.96 1096.98 1594.09 986.621 1595.49 951.694C1597.54 900.276 1623.25 762.292 1638.8 684.686Z" fill="#30313D"/>
<path d="M1632.11 1326.4C1614.72 1318.89 1606.71 1298.7 1614.23 1281.31L1668.77 1155.05C1676.28 1137.66 1696.47 1129.66 1713.86 1137.17L1899.25 1217.26C1916.64 1224.77 1924.65 1244.96 1917.14 1262.35L1862.6 1388.61C1855.08 1406 1834.9 1414 1817.51 1406.49L1632.11 1326.4Z" fill="white"/>
<path fill-rule="evenodd" clip-rule="evenodd" d="M1630.07 1331.12C1610.08 1322.48 1600.87 1299.27 1609.51 1279.27L1664.05 1153.02C1672.69 1133.02 1695.9 1123.81 1715.9 1132.45L1901.29 1212.54C1921.29 1221.18 1930.5 1244.39 1921.86 1264.39L1867.32 1390.65C1858.68 1410.64 1835.46 1419.85 1815.47 1411.21L1630.07 1331.12ZM1618.95 1283.35C1612.56 1298.13 1619.37 1315.3 1634.15 1321.68L1819.54 1401.77C1834.33 1408.16 1851.49 1401.35 1857.88 1386.57L1912.42 1260.31C1918.81 1245.53 1912 1228.36 1897.22 1221.98L1711.82 1141.89C1697.04 1135.5 1679.88 1142.31 1673.49 1157.09L1618.95 1283.35Z" fill="#30313D"/>
<path d="M1899.66 954.668C1882.12 982.356 1855.36 1058.78 1888.58 1142.95C1905.19 1111.57 1930.67 1029.98 1899.66 954.668Z" fill="#30313D"/>
<path d="M1188.07 1062.65C1214.84 1056.19 1282.21 1052.13 1337.59 1087.57C1315.44 1112.49 1254.52 1142.39 1188.07 1062.65Z" fill="#30313D"/>
<path d="M1365.27 915.905C1359.73 965.743 1354.2 1029.43 1351.43 1076.5C1338.14 1092 1305.28 1106.95 1290.51 1112.49C1328.17 1070.4 1348.66 976.819 1365.27 915.905Z" fill="#30313D"/>
<path d="M1684.04 1340.35C1686.26 1333.7 1708.96 1311.73 1720.04 1301.58C1743.11 1298.81 1787.6 1301.58 1780.95 1334.81C1772.65 1376.34 1764.34 1409.57 1720.04 1395.72C1684.59 1384.65 1688.66 1361.57 1695.12 1351.42C1690.5 1350.5 1681.83 1346.99 1684.04 1340.35Z" fill="white"/>
<path fill-rule="evenodd" clip-rule="evenodd" d="M1781.62 1312.16C1786.2 1318.38 1787.89 1326.31 1785.99 1335.82C1783.92 1346.19 1781.8 1356.28 1779.08 1365.28C1776.37 1374.26 1772.96 1382.51 1768.13 1389.08C1763.23 1395.75 1756.83 1400.71 1748.34 1402.87C1739.98 1405 1730.13 1404.26 1718.5 1400.63C1699.77 1394.77 1690.22 1385.3 1686.95 1374.75C1684.66 1367.33 1685.7 1360.11 1687.88 1354.44C1686.54 1353.82 1685.19 1353.07 1683.96 1352.16C1682.29 1350.93 1680.55 1349.2 1679.5 1346.86C1678.39 1344.38 1678.21 1341.58 1679.16 1338.72C1679.67 1337.2 1680.59 1335.66 1681.52 1334.3C1682.5 1332.86 1683.72 1331.28 1685.08 1329.63C1687.82 1326.34 1691.31 1322.54 1695.02 1318.71C1702.45 1311.02 1710.97 1302.92 1716.56 1297.79L1717.78 1296.67L1719.42 1296.48C1731.33 1295.05 1749.09 1294.98 1763.3 1299.83C1770.44 1302.27 1777.18 1306.12 1781.62 1312.16ZM1722.28 1306.5C1733.34 1305.36 1748.42 1305.61 1759.98 1309.56C1766.01 1311.62 1770.59 1314.52 1773.34 1318.26C1775.96 1321.81 1777.33 1326.7 1775.91 1333.8C1773.83 1344.19 1771.8 1353.83 1769.24 1362.31C1766.67 1370.8 1763.68 1377.78 1759.85 1382.98C1756.1 1388.08 1751.6 1391.43 1745.81 1392.9C1739.89 1394.41 1732.09 1394.1 1721.57 1390.81C1704.87 1385.59 1698.72 1377.99 1696.77 1371.7C1694.74 1365.13 1696.78 1358.39 1699.45 1354.18L1703.48 1347.85L1696.13 1346.38C1694.25 1346 1691.72 1345.11 1690.07 1343.89C1689.28 1343.31 1688.97 1342.85 1688.88 1342.64C1688.88 1342.64 1688.88 1342.64 1688.87 1342.63C1688.84 1342.55 1688.77 1342.41 1688.92 1341.97C1688.92 1341.97 1688.92 1341.96 1688.93 1341.93C1688.94 1341.9 1688.96 1341.87 1688.98 1341.82C1689.03 1341.71 1689.1 1341.58 1689.19 1341.4C1689.39 1341.05 1689.66 1340.61 1690.02 1340.08C1690.75 1339.01 1691.75 1337.7 1693 1336.19C1695.49 1333.19 1698.79 1329.6 1702.41 1325.85C1709.14 1318.9 1716.82 1311.55 1722.28 1306.5Z" fill="#30313D"/>
<path d="M1577.75 1655.07L1551.8 1504.64V1655.07H1577.75Z" fill="white"/>
<path d="M1614.47 567.033L1617.24 616.872L1620.01 666.71C1670.95 664.495 1713.22 687.937 1727.99 699.935C1747.37 619.64 1680.92 567.033 1680.92 536.576C1680.92 506.119 1667.08 411.98 1572.94 409.211C1502.32 407.134 1482.99 464.935 1481.61 506.389C1481.47 510.605 1485.33 513.706 1489.28 512.246C1508.25 505.247 1532.49 485.777 1546.91 470.476C1550.92 466.22 1559.19 467.581 1561.8 472.813C1568.46 486.166 1578.21 498.53 1585.2 506.98C1586.22 508.217 1586.78 509.755 1586.81 511.36C1586.95 519.211 1587.77 529.863 1589.03 540.383C1589.92 547.762 1600.18 547.735 1602.49 540.674C1605.1 532.736 1608.25 525.144 1611.7 519.963C1622.78 503.35 1639.39 517.194 1639.39 536.576C1639.39 552.082 1622.78 563.341 1614.47 567.033Z" fill="#30313D"/>
<path d="M1464.95 677.786C1476.03 666.711 1488.03 612.258 1492.64 586.415C1497.07 608.566 1520.33 625.179 1531.4 630.716L1523.1 663.942C1500.95 663.942 1475.1 673.172 1464.95 677.786Z" fill="#30313D"/>
<path d="M1769.74 1327.03L1729.63 1311.23C1714.24 1305.17 1705.37 1288.99 1708.49 1272.75C1717.14 1227.68 1728.19 1168.49 1736.3 1121.09L1874.74 1181.71C1859.23 1223.8 1829.51 1282.31 1816.59 1306.31L1810.05 1315.3C1800.86 1327.94 1784.28 1332.76 1769.74 1327.03Z" fill="white"/>
<path d="M1747.37 1043.27C1747.37 1018.9 1703.99 947.284 1683.69 904.829C1728.29 1037.44 1730.88 1068.59 1710.12 1265.85C1723.1 1200.96 1747.37 1054.9 1747.37 1043.27Z" fill="#30313D"/>
<path d="M1575.16 629.944C1556.47 638.25 1537.95 633.405 1531.03 629.944L1525.84 655.9C1550.76 655.9 1569.1 638.596 1575.16 629.944Z" fill="#30313D"/>
<path d="M912.625 1645.56C879.399 1585.75 732.651 1544.34 663.431 1530.5L605.161 1645.56H912.625Z" fill="#30313D"/>
<path d="M412.991 867.791L397.164 917.346L491.146 952.468L504.085 880.951C519.208 882.687 553.759 872.187 570.988 816.303C592.525 746.449 564.145 658.022 504.33 649.129C444.516 640.236 400.876 690.655 389.96 756.321C381.227 808.853 401.675 852.523 412.991 867.791Z" fill="white"/>
<path fill-rule="evenodd" clip-rule="evenodd" d="M432.439 678.405C413.606 697.191 400.354 725.148 395.032 757.163C386.57 808.063 406.466 850.352 417.122 864.73L418.69 866.846L403.552 914.245L487.182 945.498L499.884 875.294L504.672 875.843C516.833 877.239 549.416 868.825 566.076 814.788C576.505 780.962 574.839 742.553 563.347 711.647C551.822 680.651 530.913 658.279 503.574 654.214C475.447 650.032 451.167 659.724 432.439 678.405ZM425.178 671.125C445.952 650.403 473.4 639.332 505.087 644.043C537.562 648.872 560.751 675.16 572.985 708.064C585.253 741.058 587.009 781.791 575.902 817.818C559.577 870.767 527.503 885.74 508.351 886.255L495.109 959.437L390.777 920.448L407.313 868.673C395.179 850.906 376.261 807.376 384.888 755.477C390.482 721.827 404.508 691.742 425.178 671.125Z" fill="#30313D"/>
<path d="M412.631 865.046C422.282 870.48 462.019 872.517 480.681 872.856C494.407 871.052 501.199 858.988 509.654 838.328C516.418 821.8 505.685 808.131 499.472 803.362C461.478 769.26 500.496 736.204 512.773 734.59C525.256 732.949 526.985 757.076 527.291 778.952C527.392 786.19 535.703 787.572 538.488 780.89C544.796 765.763 551.986 749.986 557.894 738.199C563.322 727.368 573.43 720.266 584.381 715.086C641.509 688.063 638.254 635.927 624.038 625.014C608.507 613.093 600.053 633.754 544.646 615.903C489.239 598.053 408.907 603.028 373.425 694.264C337.944 785.5 400.568 858.254 412.631 865.046Z" fill="#30313D"/>
<path d="M1114.74 1414.21C1100.39 1352.76 1019.89 1340.71 981.431 1342.36L976.303 1414.21H1114.74Z" fill="white"/>
<path fill-rule="evenodd" clip-rule="evenodd" d="M986.227 1347.37L981.825 1409.07H1107.96C1099.72 1384.34 1079.16 1368.79 1055.25 1359.41C1031.37 1350.04 1004.87 1347.14 986.227 1347.37ZM1059 1349.84C1086.57 1360.66 1112.04 1380.03 1119.75 1413.04L1121.23 1419.35H970.782L976.629 1337.42L981.21 1337.22C1000.97 1336.37 1031.45 1339.03 1059 1349.84Z" fill="#30313D"/>
<path d="M358.858 901.975C312.342 937.416 254.437 1034.24 233.998 1104.32C183.172 1278.58 115.305 1618.57 293.694 1645.56C445.273 1645.74 571.416 1645.64 615.54 1645.56C636.16 1614.46 674.329 1543.36 662.044 1502.81L655.122 1441.9C736.143 1477.47 881.955 1452.51 965.55 1430.33C981.526 1426.09 991.533 1410.6 989.624 1394.19L982.414 1332.18C980.484 1315.59 966.766 1302.87 950.118 1301.46C769.321 1286.16 722.176 1225.72 680.041 1167.78C635.74 1106.87 552.675 973.964 516.681 943.507C480.686 913.05 417.003 857.674 358.858 901.975Z" fill="white"/>
<path fill-rule="evenodd" clip-rule="evenodd" d="M444.015 899.417C417.406 887.776 389.085 885.409 361.974 906.065C339.475 923.207 313.768 955.629 291.037 992.839C268.359 1029.96 248.994 1071.27 238.933 1105.76C213.563 1192.74 184.046 1320.77 183.031 1430.22C182.524 1484.98 189.164 1534.56 206.62 1571.93C223.899 1608.93 251.684 1633.88 294.088 1640.42C442.433 1640.6 566.353 1640.5 612.762 1640.42C622.815 1624.95 636.434 1600.89 646.352 1575.84C651.561 1562.68 655.697 1549.38 657.791 1536.99C659.893 1524.56 659.877 1513.39 657.123 1504.3L656.988 1503.85L649.004 1433.59L657.188 1437.19C696.489 1454.44 752.132 1457.19 808.961 1452.64C865.607 1448.11 922.646 1436.39 964.232 1425.36C977.613 1421.81 986.146 1408.79 984.517 1394.78L977.307 1332.78C975.673 1318.72 964.013 1307.79 949.685 1306.58C858.779 1298.89 800.944 1279.81 760.398 1254.99C719.817 1230.16 696.998 1199.84 675.883 1170.81C662.151 1151.92 644.662 1126.08 626.054 1098.59C614.593 1081.65 602.708 1064.09 591.014 1047.14C575.627 1024.84 560.542 1003.55 547.079 985.958C533.535 968.261 521.89 954.65 513.36 947.432C512.864 947.013 512.364 946.589 511.859 946.162C493.897 930.954 470.154 910.853 444.015 899.417ZM518.18 938.04C518.796 938.562 519.403 939.076 520.002 939.583C529.469 947.593 541.705 962.017 555.244 979.709C568.863 997.505 584.062 1018.96 599.478 1041.3C611.314 1058.46 623.261 1076.11 634.741 1093.08C653.254 1120.43 670.551 1145.99 684.199 1164.76C705.22 1193.66 727.041 1222.53 765.765 1246.22C804.524 1269.94 860.66 1288.73 950.552 1296.34C969.52 1297.94 985.295 1312.45 987.521 1331.59L994.73 1393.59C996.92 1412.42 985.438 1430.37 966.869 1435.29C924.859 1446.44 867.195 1458.3 809.781 1462.89C756.19 1467.18 702.124 1465.22 661.207 1449.91L667.101 1501.78C670.348 1512.86 670.143 1525.61 667.93 1538.7C665.678 1552.03 661.287 1566.05 655.912 1579.62C645.166 1606.76 630.281 1632.63 619.825 1648.4L618.303 1650.7L615.549 1650.7C571.42 1650.78 445.272 1650.89 293.688 1650.7L293.305 1650.7L292.925 1650.64C246.347 1643.6 215.832 1615.96 197.303 1576.29C178.901 1536.88 172.236 1485.51 172.75 1430.12C173.777 1319.26 203.606 1190.16 229.062 1102.88C239.441 1067.3 259.248 1025.15 282.262 987.479C305.222 949.895 331.725 916.184 355.743 897.886C386.777 874.24 419.369 877.411 448.137 889.997C475.684 902.049 500.425 923.003 518.18 938.04Z" fill="#30313D"/>
<path d="M441.926 1231.46C495.087 1337.79 585.904 1411.44 657.893 1444.66L660.662 1497.27C505.608 1404.24 450.232 1281.3 441.926 1231.46Z" fill="#30313D"/>
<path d="M685.581 1452.97C669.891 1418.82 614.699 1348.86 519.452 1342.22C548.063 1374.52 621.344 1441.89 685.581 1452.97Z" fill="#30313D"/>
<path d="M140.15 1476.83C171.209 1623.1 242.756 1645.62 289.9 1645.62H633.771C694.78 1645.62 686.461 1626.42 686.461 1609.8C667.048 1526.69 619.905 1493.45 478.474 1451.9C337.043 1410.34 306.538 1244.12 259.395 1136.08C212.251 1028.04 84.6867 1025.27 68.0478 1047.43C51.4089 1069.59 101.326 1293.99 140.15 1476.83Z" fill="white"/>
<path fill-rule="evenodd" clip-rule="evenodd" d="M80.8317 1045.29C76.0694 1046.98 73.3596 1048.92 72.1593 1050.52C71.8327 1050.95 71.2338 1052.19 70.7441 1054.83C70.2762 1057.35 69.9899 1060.68 69.9168 1064.83C69.7707 1073.13 70.4815 1084.18 71.9455 1097.6C74.8702 1124.41 80.7339 1160.1 88.3542 1200.93C100.944 1268.39 118.264 1349.55 134.859 1427.32C138.348 1443.67 141.805 1459.87 145.179 1475.76C160.562 1548.21 185.811 1589.24 212.355 1612.18C238.833 1635.07 267.185 1640.48 289.9 1640.48H633.771C648.812 1640.48 659.236 1639.29 666.43 1637.39C673.61 1635.49 677.147 1633 678.993 1630.71C680.802 1628.47 681.521 1625.76 681.67 1622.2C681.746 1620.39 681.672 1618.49 681.564 1616.38C681.55 1616.09 681.534 1615.79 681.518 1615.49C681.433 1613.88 681.341 1612.14 681.323 1610.41C671.816 1570.08 655.734 1542.3 625.142 1519.38C594.054 1496.09 547.704 1477.59 477.025 1456.83C404.4 1435.49 360.522 1382.14 329.011 1321.28C313.261 1290.86 300.519 1258.41 288.808 1226.96C286.225 1220.02 283.694 1213.13 281.194 1206.33C272.318 1182.19 263.819 1159.07 254.683 1138.13C231.85 1085.81 189.588 1058.97 150.865 1047.87C131.48 1042.31 113.116 1040.75 98.7342 1041.86C91.5371 1042.42 85.4712 1043.64 80.8317 1045.29ZM153.699 1037.98C194.704 1049.74 239.796 1078.31 264.107 1134.02C273.378 1155.27 282.018 1178.77 290.911 1202.96C293.396 1209.72 295.901 1216.54 298.444 1223.37C310.131 1254.76 322.695 1286.72 338.142 1316.56C369.028 1376.21 411.118 1426.75 479.923 1446.96C550.675 1467.75 598.612 1486.66 631.307 1511.15C664.355 1535.91 681.545 1566.15 691.467 1608.63L691.602 1609.21V1609.8C691.602 1611.43 691.689 1613.09 691.784 1614.91C691.8 1615.22 691.817 1615.53 691.833 1615.85C691.942 1617.97 692.041 1620.3 691.944 1622.63C691.747 1627.33 690.732 1632.54 686.996 1637.17C683.295 1641.76 677.472 1645.11 669.054 1647.33C660.649 1649.55 649.234 1650.76 633.771 1650.76H289.9C265.471 1650.76 234.478 1644.9 205.631 1619.96C176.851 1595.08 150.797 1551.72 135.121 1477.89C131.753 1462.03 128.3 1445.85 124.814 1429.52C108.219 1351.75 90.8633 1270.42 78.2463 1202.82C70.6142 1161.92 64.692 1125.93 61.7237 1098.72C60.2413 1085.13 59.4788 1073.58 59.636 1064.65C59.7146 1060.19 60.0241 1056.25 60.6341 1052.96C61.2222 1049.79 62.1831 1046.68 63.9364 1044.34C66.8958 1040.4 71.8123 1037.58 77.3951 1035.6C83.1007 1033.57 90.0989 1032.22 97.9374 1031.61C113.627 1030.39 133.22 1032.11 153.699 1037.98Z" fill="#30313D"/>
</svg>
